<?xml version="1.0" encoding="UTF-8" standalone="no"?><!DOCTYPE svg PUBLIC "-//W3C//DTD SVG 1.1//EN" "http://www.w3.org/Graphics/SVG/1.1/DTD/svg11.dtd"><svg width="100%" height="100%" viewBox="0 0 246 246" version="1.1" xmlns="http://www.w3.org/2000/svg" xmlns:xlink="http://www.w3.org/1999/xlink" xml:space="preserve" xmlns:serif="http://www.serif.com/" style="fill-rule:evenodd;clip-rule:evenodd;stroke-linejoin:round;stroke-miterlimit:2;"><g id="icone.jpg"><path d="M101.152,219.023c-0.152,-0.077 -0.545,-0.154 -0.699,-0.234c-3.832,-1.962 -8.504,-4.702 -12.741,-7.686l-3.426,-2.662l-4.974,-4.538c-0.917,-0.703 -1.54,-1.676 -2.352,-2.438c-8.454,-7.922 -11.493,-18.901 -14.448,-31.162l-16.8,-78.96l-1.68,-20.16l-0.72,-18l22.8,-14.88l58.8,-12.48l12.24,0l1.68,-3.84l18,7.92l1.68,1.2l6,0l35.52,14.88l-4.08,34.32l-5.28,59.76l-0.72,13.44l0.48,10.08l-16.32,21.36l-13.68,14.64l-30.96,23.04l-7.2,4.32l-15.469,-5.891l-0.303,-0.187l-5.349,-1.842Z" style="fill:#fff;"/><path d="M186.851,70.269c2.919,1.226 2.902,1.281 3.175,1.27c0.771,-0.03 0.67,-1.454 0.771,-2.531c0.126,-1.341 1.476,-15.749 1.06,-16.801c-0.293,-0.742 -2.489,-1.918 -10.516,-5.363c-3.248,-1.394 -3.604,-0.982 -4.806,-2.774c-1.83,-2.727 -5.094,-6.182 -6.731,-7.71c-0.355,-0.331 -2.932,-2.735 -4.58,-3.991c-1.884,-1.435 -1.977,-1.293 -2.134,-1.425c-0.032,-0.027 -0.392,-0.33 -0.39,-0.344c0.139,-0.866 0.563,-0.32 3.081,0.258c4.736,1.086 9.868,2.723 11.717,3.286c9.984,3.041 20.953,7.998 24.784,10.808c1.248,0.916 0.988,1.203 0.843,6.444c-0.357,12.946 -2.564,44.081 -5.37,63.797c-1.538,10.807 -1.511,10.801 -3.565,21.525c-0.57,2.978 -3.078,17.324 -3.271,21.94c-0.039,0.945 0.541,0.865 1.18,0.16c0.758,-0.837 10.605,-10.397 10.891,-10.669c1.524,-1.445 1.697,-1.513 1.498,-2.397c-1.027,-4.554 3.271,-5.758 3.556,-5.816c6.072,-1.249 7.93,6.967 3.12,8.947c-2.896,1.193 -4.441,-0.378 -5.091,-0.374c-0.909,0.005 -3.124,3.232 -12.386,11.876c-1.308,1.22 -0.202,1.822 -0.862,3.401c-0.308,0.738 -0.334,0.741 -6.666,7.455c-0,0.001 -1.329,1.243 0.335,1.168c1.573,-0.071 1.564,-0.041 3.135,-0.043c7.441,-0.014 7.434,-0.034 14.878,-0.04c1.205,-0.001 1.235,-0.54 1.602,-1.106c1.892,-2.917 6.203,-1.482 6.511,1.557c0.333,3.288 -2.689,4.437 -4.175,4.143c-2.281,-0.451 -2.23,-2.208 -3.563,-2.436c-0.426,-0.073 -19.658,-0.026 -20.734,0.012c-2.124,0.074 -1.761,1.5 -8.144,7.729c-1.16,1.132 0.23,1.056 0.318,1.052c4.146,-0.226 18.319,0.148 19.232,-0.229c0.597,-0.247 1.012,-2.368 3.469,-2.509c4.994,-0.287 5.106,7.55 -0.005,7.229c-2.265,-0.142 -2.836,-2.07 -3.547,-2.375c-0.292,-0.125 -22.223,-0.103 -22.657,-0.011c-1.315,0.277 -7.335,6.671 -21.555,6.805c-1.096,0.01 -10.253,0.097 -13.702,0.055c-2.506,-0.031 -6.688,-0.081 -31.322,-0.122c-5.934,-0.01 -6.221,-0.158 -6.519,0.656c-0.049,0.134 -0.528,2.381 -0.892,6.615c-0.578,6.716 1.834,15.5 8.293,21.104c0.17,0.148 0.191,0.161 0.11,0.373c-0.137,0.357 -0.244,0.278 -0.598,0.141c-2.942,-1.141 -4.964,-1.623 -6.177,-2.224c-1.499,-0.742 -3.38,-4.595 -3.973,-6.099c-1.078,-2.735 -6.229,-13.96 3.593,-35.962c4.92,-11.022 14.476,-20.71 15.755,-22.188c0.661,-0.764 14.285,-15.459 16.2,-17.448c6.383,-6.63 6.308,-7.122 7.463,-6.892c5.115,1.02 5.837,-3.43 5.172,-5.218c-0.286,-0.769 -0.781,-0.981 0.231,-2.04c1.133,-1.185 8.198,-8.577 14.07,-14.896c6.537,-7.034 6.589,-7.1 7.106,-7.765c9.449,-12.137 8.41,-25.9 8.412,-28.526c0.012,-21.648 -0.141,-21.66 -0.797,-24.296c-0.195,-0.783 -0.987,-2.491 -0.097,-2.378c0.217,0.027 0.683,0.791 0.73,0.868c1.746,2.86 2.207,3.926 2.362,4.286c2.11,4.884 2.447,7.586 2.451,10.949c0.016,13.583 0.149,17.15 -0.38,21.544c-1.872,15.551 -12.101,24.404 -13.241,25.594c-2.038,2.127 -21.275,22.206 -25.493,26.573c-10.759,11.14 -23.318,24.61 -23.795,25.171c-2.449,2.881 -2.736,2.905 -2.48,3.268c0.231,0.327 0.298,0.223 0.692,0.199c1.888,-0.114 31,-0.037 33.695,-0.03c6.883,0.018 8.082,-2.532 13.612,-8.436c4.391,-4.689 4.386,-4.719 6.032,-7.711c1.501,-2.728 1.98,-2.526 1.941,-3.186c-0.02,-0.347 -0.11,-0.338 -0.449,-0.339c-0.218,-0.001 -1.9,-0.006 -2.727,0.073c-1.27,0.121 -1.068,0.638 -5.015,5.054c-7.931,8.87 -8.19,9.394 -11.042,10.118c-1.306,0.331 -1.524,0.387 -16.839,0.301c-0.6,-0.657 -0.66,-0.629 -0.641,-0.703c0.038,-0.149 0.305,-0.116 0.39,-0.244c0.073,-0.111 -0.012,-0.272 0.034,-0.397c0.026,-0.071 0.863,-0.913 0.94,-0.99c5.544,-5.579 6.341,-6.717 6.468,-6.86c1.17,-1.303 1.73,-1.737 1.746,-1.753c5.867,-6.043 5.741,-6.153 6.293,-6.633c1.258,-1.095 1.153,-1.187 2.346,-2.351c1.838,-1.793 1.777,-1.835 1.937,-1.989c0.255,-0.245 0.152,-0.336 3.054,-3.202c2.901,-2.865 2.867,-2.89 3.127,-3.13c1.303,-1.205 1.085,-1.395 1.668,-1.867c1.298,-1.05 2.141,-2.277 4.714,-4.677c1.015,-0.947 0.756,-1.195 1.462,-1.702c0.672,-0.483 0.599,-0.551 1.197,-1.124c1.012,-0.97 0.836,-1.132 1.931,-1.998c0.868,-0.687 0.768,-0.779 1.55,-1.565c0.638,-0.641 0.868,-1.165 1.253,-1.498c0.627,-0.542 0.629,-0.523 1.187,-1.149c0.133,-0.149 1.585,-1.777 1.664,-1.856c0.786,-0.787 0.722,-0.837 1.496,-1.634c1.762,-1.814 1.537,-1.981 2.061,-2.673c1.118,-1.477 0.962,-1.574 2.023,-3.093c0.762,-1.091 0.63,-1.155 1.201,-2.351c3.112,-6.52 3.055,-10.252 3.51,-12.183c0.697,-2.959 0.28,-11.825 0.155,-12.947c-0.146,-1.304 0.108,-1.314 -0.319,-6.267c-0.159,-1.841 0.306,-1.745 0.409,-1.844c0.132,-0.127 0.223,-0.293 0.355,-0.42Z" style="fill:#7c3db8;"/><path d="M45.828,94.072c-0.684,-7.415 -0.569,-7.493 -0.821,-7.688c-0.314,-0.243 -0.651,0.093 -0.691,0.133c-4.133,4.124 -4.204,4.038 -8.477,8.028c-2.796,2.61 -2.817,2.703 -2.892,3.029c-0.106,0.463 0.312,2.913 -2.729,4.604c-3.055,1.698 -7.625,-0.815 -7.106,-4.998c0.33,-2.658 4.222,-6.057 8.089,-2.898c1.194,0.976 1.385,0.45 2.368,-0.437c0.379,-0.342 0.36,-0.353 4.642,-4.369c9.32,-8.743 9.431,-9.126 10.918,-10.622c0.468,-0.471 5.781,-5.818 5.812,-5.932c0.177,-0.644 -0.343,-0.698 -0.408,-0.705c-0.466,-0.049 -0.46,0.095 -5.856,0.083c-1.19,-0.003 -1.189,0.02 -14.876,0.076c-1.712,0.007 -1.812,0.02 -2.438,0.873c-3.031,4.127 -8.548,-0.457 -5.983,-4.12c1.508,-2.154 4.807,-2.064 6.052,0.283c0.495,0.933 0.689,0.893 3.547,0.891c4.896,-0.004 4.885,-0.041 9.784,0.032c0.94,0.014 6.873,0.103 11.747,-0.013c1.481,-0.035 1.813,-0.734 5.469,-4.46c3.728,-3.8 3.777,-3.75 3.945,-3.889c0.908,-0.75 -0.291,-0.943 -0.373,-0.946c-0.285,-0.008 -17.32,0.047 -18.826,0.052c-5.223,0.017 -5.425,-0.248 -6.107,0.612c-0.717,0.903 -0.661,0.989 -1.697,1.492c-3.638,1.767 -6.909,-3.256 -3.705,-6.093c0.979,-0.867 3.458,-1.651 5.159,0.623c0.667,0.892 0.536,1.223 1.648,1.243c1.063,0.019 18.604,-0.054 25.841,-0.016c1.956,0.01 1.964,-0.12 3.587,-1.194c0.495,-0.328 5.33,-3.099 10.903,-3.59c6.398,-0.564 6.572,-0.175 19.183,-0.318c4.064,-0.046 41.485,0.097 42.281,0.074c1.053,-0.032 1.745,0.271 2.078,-0.924c0.655,-2.351 4.828,-16.391 -4.74,-28.281c-1.832,-2.276 -2.604,-2.364 -2.783,-2.7c-0.054,-0.102 0.024,-0.229 0.032,-0.344c0.006,-0.083 -0.053,-0.195 0.01,-0.248c0.155,-0.131 2.309,0.652 4.955,1.551c1.57,0.533 2.337,0.833 4.23,3.837c0.638,1.013 3.685,6.577 4.14,12.831c0.157,2.159 1.121,9.62 -4.009,23.888c-1.763,4.905 -5.944,12.924 -12.058,20.033c-1.179,1.371 -1.132,1.398 -2.326,2.761c-3.12,3.559 -15.436,16.271 -23.158,24.619c-2.717,2.938 -2.851,2.914 -3.582,2.845c-0.455,-0.043 -2.323,-0.543 -3.803,1.49c-0.486,0.669 -0.712,1.828 -0.562,2.686c0.112,0.643 0.571,0.854 -0.753,2.296c-2.879,3.135 -16.124,16.923 -18,18.799c-2.953,2.953 -10.04,10.163 -11.935,23.938c-0.436,3.168 -0.25,7.454 -0.321,16.423c-0.105,13.167 0.405,13.846 1.197,16.075c0.259,0.729 0.01,1.168 -0.614,0.711c-0.064,-0.046 -2.044,-3.203 -2.588,-4.35c-2.933,-6.185 -2.462,-9.71 -2.478,-17.917c-0.024,-12.371 -0.097,-12.88 1.593,-19.556c1.248,-4.929 4.618,-11.451 8.986,-16.007c1.701,-1.775 1.772,-1.702 21.423,-22.033c6.452,-6.675 6.489,-6.624 12.909,-13.32c1.043,-1.088 10.976,-11.56 16.549,-17.521c1.695,-1.813 2.297,-2.417 1.929,-2.812c-0.143,-0.153 -0.188,-0.061 -5.895,-0.047c-31.742,0.08 -31.764,-0.056 -33.693,0.349c-5.266,1.104 -5.717,3.098 -14.039,11.502c-1.241,1.253 -1.562,2.086 -1.643,2.296c-0.534,1.385 -0.969,2.563 -1.051,2.787c-0.56,1.519 -0.739,1.449 -1.066,3.034l-0.112,0.308c-1.479,2.072 -3.784,7.241 -11.793,5.521c-2.164,-0.465 -3.402,-1.47 -3.651,-1.673c-0.109,-0.089 -0.123,-0.065 -1.431,-1.02c-0.084,-0.042 -0.189,-0.025 -0.273,-0.067c-0.559,-0.278 -2.53,-1.753 -2.746,-1.96c-1.291,-1.234 -3.794,-3.961 -4.724,-5.822c-0.197,-0.394 -0.186,-0.388 -0.388,-0.775c-0.052,-0.099 -0.07,-0.218 -0.141,-0.305c-0.044,-0.055 -0.16,-0.035 -0.186,-0.101c-0.026,-0.068 0.081,-0.137 0.065,-0.208c-0.015,-0.071 -0.111,-0.023 -0.337,-0.837c-0.124,-0.447 -0.237,-0.389 -0.385,-0.821c-0.08,-0.232 0.007,-0.265 -0.127,-0.392c-0.294,-0.279 -0.398,-0.106 -0.692,-0.386Z" style="fill:#2698d4;"/><path d="M143.728,114.017c0.753,-5.72 -5.225,-6.044 -6.956,-3.899c-2.078,2.574 -0.552,4.333 -0.88,5.055c-0.136,0.3 -0.157,0.345 -2.973,2.848c-1.554,1.381 -1.542,1.377 -3.068,2.804c-13.647,12.773 -13.641,12.761 -27.192,25.652c-9.132,8.687 -11.517,10.48 -13.861,13.887c-5.104,7.419 -6.867,11.223 -8.735,17.506c-0.096,-0.191 0.189,-0.174 0.095,-0.36c-0.156,-0.309 -0.38,-0.108 -0.499,-0.44c-0.088,-0.246 0.067,-0.521 0.061,-0.783c-0.003,-0.133 -0.082,-0.257 -0.088,-0.39c-0.018,-0.394 0.171,-0.541 0.279,-1.574c0.239,-2.299 0.871,-4.35 0.934,-4.682c0.23,-1.212 0.286,-1.19 0.567,-2.383c0.919,-3.894 1.311,-4.439 2.032,-6.271c0.597,-1.515 0.665,-1.479 1.079,-2.418c2.619,-5.941 7.393,-10.797 7.492,-11.255c0.028,-0.132 -0.133,-0.259 -0.105,-0.392l0.254,-0.528c0.255,0.032 1.996,0.246 3.168,-0.545c3.145,-2.123 1.603,-5.213 1.311,-5.935c0.713,0.135 0.784,0.379 1.33,-0.086c0.534,-0.454 0.89,-0.676 1.491,-1.24c3.919,-3.672 4.099,-3.457 7.275,-6.434c0.83,-0.778 10.491,-9.275 10.993,-9.729c2.835,-2.566 2.864,-2.53 3.093,-2.771c0.483,-0.506 0.542,-0.426 0.803,-0.631c0.332,0.358 0.327,0.358 0.358,0.386c0.803,0.721 1.336,0.045 5.797,-4.578c13.215,-13.693 20.666,-20.275 25.59,-26.115c0.813,-0.964 0.965,-0.87 2.212,-0.656c1.688,0.29 3.587,-0.628 4.273,-2.223c1.037,-2.409 -0.297,-4.266 -0.329,-4.327c-0.527,-1.021 0.092,-1.018 2.418,-5.388c9.026,-16.955 5.471,-32.727 4.993,-34.917c-0.541,-2.482 -0.802,-2.392 -1.029,-3.147c-0.131,-0.434 0.461,-0.845 0.998,0.03c0.493,0.804 2.01,2.21 2.697,3.158c1.366,1.885 2.594,8.438 2.776,9.753c0.261,1.893 0.464,3.361 0.354,23.881c-0.005,0.916 -0.035,6.445 -1.57,11.337c-3.244,10.335 -7.828,14.559 -10.257,17.109c-0.703,0.738 -0.647,0.778 -8.711,9.29c-7.898,8.338 -7.823,8.402 -8.521,9.116c-1.079,1.103 -1.37,0.725 -2.218,0.654c-0.364,-0.03 -2.889,-0.241 -4.132,1.933c-1.328,2.323 0.14,3.685 -0.167,4.589c-0.121,0.357 -0.139,0.41 -3.122,3.532c-8.291,8.679 -14.629,15.646 -16.09,17.192c-4.47,4.725 -16.645,16.839 -21.823,31.768c-4.69,13.523 -5.119,23.421 -0.958,32.905c0.796,1.813 1.486,1.962 0.869,2.251c-0.211,0.099 -0.985,-0.455 -1.062,-0.51c-1.752,-1.252 -3.251,-1.962 -4.005,-2.578c-1.207,-0.987 -4.38,-9.697 -3.934,-18.784c1.147,-23.394 18.069,-38.145 20.442,-40.65c11.245,-11.87 18.009,-18.643 19.87,-20.831c0.184,-0.229 0.087,-0.826 0.206,-0.975c0.126,-0.157 0.186,0.205 0.508,-0.313c0.458,-0.737 4.363,-5.168 4.363,-5.168l6.139,-7.225c0,0 3.822,-2.183 3.825,-2.37c0.004,-0.315 -0.433,-0.287 -0.429,-0.602c1.413,-1.279 1.685,-1.91 1.767,-2.536Z" style="fill:#453da1;"/><path d="M117.236,90.976c-1.485,1.608 -31.631,33.201 -42.353,43.778c-8.274,8.162 -10.118,16.616 -11.06,20.758c-0.919,4.04 -1.007,11.871 -0.827,13.33c0.014,0.112 0.158,1.282 -0.02,1.41c-0.062,0.045 -0.152,-0.028 -0.229,-0.026c-0.077,0.003 -0.243,0.15 -0.396,-0.165c-0.138,-0.283 -2.048,-4.397 -2.225,-4.779c-3.901,-8.402 -6.83,-20.446 -7.471,-23.464c-0.073,-0.342 -0.091,-0.335 -0.955,-4.27c-0.575,-2.618 -2.395,-12.454 -3.333,-20.392c-0.849,-7.188 -0.94,-7.601 -1.083,-8.252c-0.209,-0.952 -0.826,-0.793 -2.52,-0.77c-1.947,0.026 -1.27,2.232 -4.297,2.515c-2.384,0.223 -4.924,-2.497 -3.178,-5.644c0.806,-1.454 4.091,-2.713 5.87,0.047c0.39,0.606 0.338,0.996 1.609,1.013c0.489,0.007 1.153,0.001 1.162,-0c0.489,-0.058 0.741,-0.251 0.778,-0.264c0.165,0.039 0.24,0.27 0.406,0.309c0.17,0.04 0.342,-0.078 0.516,-0.093c0.334,-0.028 0.322,0.028 0.663,0.025c0.407,-0.003 3.833,-0.033 5.085,-0.01c0.761,0.013 1.554,0.228 1.57,0.23c0.131,0.015 0.264,-0.047 0.396,-0.032c0.165,0.237 0.871,1.247 2.632,2.467c2.195,1.52 3.057,1.084 9.098,1.549c0.412,0.032 5.327,0.025 5.892,-0.059c0.54,-0.081 2.605,-0.658 3.444,-1.337c1.747,-1.413 2.804,-2.577 3.027,-2.822c1.038,-1.142 4.217,-4.294 10.803,-11.126c0.229,-0.238 1.064,-1.104 3.18,-2.634c0.689,-0.498 3.286,-1.599 4.98,-1.778c1.309,-0.138 1.978,-0.209 16.448,-0.205c0.125,0 1.442,0 1.568,0.03c0.082,0.019 0.059,0.048 0.823,0.661Z" style="fill:#2a7ac8;"/><path d="M84.726,29.223c0.465,-0.094 9.293,-2.288 23.075,-3.652c11.552,-1.144 28.441,-0.154 29.348,0.049c2.019,0.45 5.615,7.641 6.379,10.875c0.242,1.024 -0.245,1.014 -1.282,0.863c-5.353,-0.777 -20.612,-1.933 -32.876,-0.786c-9.944,0.93 -9.908,1.135 -14.491,1.9c-20.481,3.417 -36.067,10.317 -39.882,12.626c-1.247,0.755 -0.636,1.133 -0.763,4.602c-0.042,1.152 -1.095,0.929 -2.424,0.928c-7.888,-0.006 -7.93,0.009 -8.169,-0.205c-0.269,-0.242 -0.273,-0.299 -0.474,-6.99c-0.11,-3.676 -0.399,-4.166 1.188,-5.116c3.849,-2.302 4.102,-2.296 5.535,-3.036c7.216,-3.73 18.825,-7.757 22.263,-8.743c3.613,-1.036 9.303,-2.756 12.573,-3.315Z" style="fill:#18b0e0;"/><path d="M89.511,144.488c-3.763,3.622 -3.688,3.701 -6.631,8.015c-0.581,0.851 -3.557,6.366 -4.312,8.94c-1.655,5.64 -1.982,7.88 -2.084,8.579c-1.217,8.338 -1.133,8.346 -1.155,14.486c-0.007,2.006 -0.022,2.009 1.17,10.567c0.284,2.035 0.839,3.902 0.937,4.235c0.154,0.519 0.166,0.86 0.172,0.876c0.058,0.151 0.24,0.228 0.312,0.373c0.185,0.369 -0.001,0.427 0.217,0.783c0.078,0.127 0.228,0.201 0.297,0.332c0.177,0.334 0.135,0.418 0.118,0.451c-0.171,0.338 -0.4,0.106 -0.575,0.451c-1.348,-1.433 -2.247,-1.727 -3.537,-6.303c-1.619,-5.741 -1.434,-5.814 -1.445,-21.163c-0.007,-8.634 -0.921,-18.982 8.214,-30.905c0.525,-0.686 1.16,-1.514 7.38,-7.88c9.906,-10.138 12.096,-12.534 14.216,-14.761c0.905,-0.951 0.947,-1.091 2.259,-0.939c2.877,0.334 4.169,-1.991 4.024,-3.858c-0.046,-0.598 -0.152,-0.568 -0.223,-1.157c-0.132,-1.097 0.507,-0.875 17.834,-19.485c7.975,-8.565 11.511,-11.91 17.015,-20.528c4.128,-6.463 13.709,-26.673 8.328,-43.395c-1.938,-6.024 -3.914,-6.299 -2.727,-6.569c0.159,-0.036 3.06,1.777 3.605,2.079c1.559,0.865 1.654,0.84 2.446,2.434c5.532,11.135 5.379,27.17 -3.196,42.85c-4.715,8.62 -7.157,11.294 -29.846,35.59c-14.392,15.412 -26.371,28.97 -27.499,29.618c-0.489,0.281 -3.559,-0.626 -5.07,1.645c-1.467,2.204 -0.622,3.819 -0.245,4.636Z" style="fill:#3a69be;"/><path d="M123.087,195.309c9.17,-0.021 26.217,0.099 28.561,0.074c9.326,-0.103 14.576,-3.064 14.864,-2.98c0.502,0.146 0.423,0.363 0.06,0.736c-3.106,3.196 -2.702,3.563 -9.285,9.932c-14.47,14.002 -31.812,22.529 -34.108,23.519c-0.174,-0.282 -0.612,-0.419 -0.589,-1.37c0.001,-0.062 0.011,-0.448 -0.008,-0.776c-0.078,-1.371 0.002,-1.361 0.008,-2.742c0.009,-1.973 -0.032,-1.961 0.058,-24.667c0.004,-0.913 0.055,-0.906 0.44,-1.726Z" style="fill:#b331b8;"/><path d="M186.851,70.269c-0.132,0.127 -0.223,0.293 -0.355,0.42c-0.103,0.1 -0.568,0.003 -0.409,1.844c0.427,4.953 0.173,4.963 0.319,6.267c0.126,1.122 0.542,9.989 -0.155,12.947c-0.455,1.931 -0.398,5.663 -3.51,12.183c-0.571,1.196 -0.439,1.26 -1.201,2.351c-1.061,1.52 -0.904,1.616 -2.023,3.093c-0.524,0.692 -0.299,0.859 -2.061,2.673c-0.774,0.797 -0.709,0.847 -1.496,1.634c-0.079,0.079 -1.531,1.707 -1.664,1.856c-0.558,0.626 -0.56,0.606 -1.187,1.149c-0.385,0.333 -0.616,0.857 -1.253,1.498c-0.782,0.786 -0.682,0.878 -1.55,1.565c-1.095,0.866 -0.919,1.029 -1.931,1.998c-0.598,0.573 -0.525,0.641 -1.197,1.124c-0.706,0.508 -0.447,0.755 -1.462,1.702c-2.574,2.4 -3.417,3.628 -4.714,4.677c-0.583,0.471 -0.365,0.662 -1.668,1.867c-0.26,0.24 -0.227,0.265 -3.127,3.13c-2.902,2.866 -2.799,2.956 -3.054,3.202c-0.16,0.154 -0.099,0.196 -1.937,1.989c-1.193,1.164 -1.088,1.256 -2.346,2.351c-0.552,0.48 -0.426,0.59 -6.293,6.633c-0.015,0.016 -0.575,0.449 -1.746,1.753c-0.128,0.142 -0.924,1.281 -6.468,6.86c-0.077,0.077 -0.914,0.919 -0.94,0.99c-0.046,0.125 0.04,0.286 -0.034,0.397c-0.084,0.128 -0.352,0.096 -0.39,0.244c-0.019,0.074 0.041,0.045 0.641,0.703c-0.216,-0.006 -8.16,-0.055 -9.781,0.005c-0.806,0.03 -0.833,-0.44 -0.554,-0.767c1.599,-1.868 7.979,-8.452 8.215,-8.707c9.608,-10.373 9.807,-10.169 19.506,-20.445c7.128,-7.553 7.21,-7.464 14.412,-14.95c3.527,-3.666 10.49,-9.934 13.949,-18.12c4.735,-11.207 3.33,-19.028 3.491,-26.602c0.027,-1.255 0.762,-0.786 3.974,0.485Z" style="fill:#3e2788;"/><path d="M121.627,119.023c-0.261,0.205 -0.32,0.125 -0.803,0.631c-0.229,0.24 -0.258,0.205 -3.093,2.771c-0.502,0.454 -10.163,8.951 -10.993,9.729c-3.176,2.976 -3.356,2.761 -7.275,6.434c-0.601,0.563 -0.957,0.786 -1.491,1.24c-0.546,0.464 -0.618,0.221 -1.33,0.086c0.024,-0.134 -0.078,-0.27 -0.055,-0.404c0.026,-0.148 0.062,-0.353 1.125,-1.509c19.498,-21.212 19.458,-21.244 21.163,-23.079c8.772,-9.435 8.84,-9.356 17.572,-18.838c9.759,-10.596 10.63,-11.942 13.144,-15.404c1.512,-2.082 4.05,-6.511 4.454,-7.341c3.412,-7.008 5.084,-10.73 6.467,-20.403c0.876,-6.129 0.001,-14.429 -1.514,-18.743c-0.906,-2.579 -1.395,-2.634 -0.972,-3.045c0.328,-0.318 0.395,-0.164 0.731,0.144c0.74,0.677 0.758,0.641 1.541,1.259c2.621,2.068 2.842,2.012 3.758,4.783c5.525,16.726 -0.392,33.02 -5.408,41.037c-0.843,1.347 -0.93,1.454 -2.303,1.447c-0.316,-0.002 -2.492,-0.012 -3.577,1.678c-1.666,2.594 -0.123,4.304 -0.282,5.142c-0.288,1.518 -24.456,25.099 -29.885,30.847c-0.651,0.69 -0.864,0.597 -0.973,1.538Z" style="fill:#3967bd;"/><path d="M142.2,116.313c-0.004,0.315 0.433,0.527 0.429,0.842c-0.003,0.187 -1.305,0.463 -3.345,2.85c-2.076,2.428 -4.85,5.217 -6.379,6.985c-0.472,0.546 -4.344,4.54 -4.802,5.276c-0.322,0.518 -0.296,0.52 -0.328,0.56c-0.182,0.227 -0.242,0.15 -0.426,0.379c-0.01,-0.133 0.082,-0.262 0.072,-0.395c-0.005,-0.067 -0.022,-0.281 -0.529,-0.646c-0.783,-0.564 -0.904,-0.089 -3.87,2.966c-0.988,1.017 -0.957,1.044 -12.249,12.812c-8.026,8.365 -11.597,11.73 -14.954,16.709c-1.792,2.658 -7.664,11.311 -9.835,23.404c-1.486,8.281 -0.513,13.919 -0.082,16.414c0.584,3.38 1.753,6.207 1.753,6.227c-0.002,0.087 -0.145,0.652 -1.055,-0.258c-0.716,-0.716 -2.258,-1.794 -3.012,-2.511c-0.314,-0.299 -1.043,-0.993 -2.056,-5.011c-5.032,-19.972 4.083,-34.162 5.95,-37.176c4.87,-7.862 6.279,-8.169 18.473,-19.875c8.788,-8.437 30.412,-28.588 30.923,-28.926c1.14,-0.755 2.72,1.349 5.321,-0.627Z" style="fill:#593cad;"/><path d="M123.087,195.309c-0.385,0.82 -0.436,0.812 -0.44,1.726c-0.089,22.706 -0.049,22.694 -0.058,24.667c-0.006,1.381 -0.085,1.371 -0.008,2.742c0.019,0.328 0.009,0.714 0.008,0.776c-0.023,0.951 0.415,1.088 0.589,1.37c-0.068,0.031 -0.653,0.297 -0.897,0.278c-0.373,-0.029 -8.703,-4.436 -12.543,-7.886c-0.079,-0.071 -9.961,-7.55 -7.474,-22.347c0.271,-1.614 0.778,-1.356 2.403,-1.367c1.473,-0.01 10.811,-0.076 18.419,0.041Z" style="fill:#602287;"/><path d="M117.236,90.976c-0.764,-0.614 -0.741,-0.642 -0.823,-0.661c-0.126,-0.03 -1.442,-0.03 -1.568,-0.03c-14.47,-0.004 -15.14,0.067 -16.448,0.205c-1.694,0.179 -4.29,1.28 -4.98,1.778c-2.116,1.53 -2.951,2.396 -3.18,2.634c-6.585,6.833 -9.765,9.984 -10.803,11.126c-0.223,0.245 -1.28,1.409 -3.027,2.822c-0.839,0.679 -2.903,1.256 -3.444,1.337c-0.565,0.084 -5.48,0.091 -5.892,0.059c-6.041,-0.466 -6.903,-0.029 -9.098,-1.549c-1.761,-1.22 -2.466,-2.23 -2.632,-2.467l0.419,-0.485c1.307,0.956 1.322,0.932 1.431,1.02c0.249,0.203 1.487,1.208 3.651,1.673c8.009,1.72 10.313,-3.449 11.793,-5.521l0.331,0.092c0.127,-0.006 0.254,0.009 0.38,0.004c2.372,-0.105 2.137,-0.755 5.029,-3.909c7.675,-8.369 8.891,-11.058 13.771,-12.038c2.057,-0.413 2.076,-0.328 26.221,-0.296c1.814,0.002 1.858,-0.123 2.109,0.114c0.432,0.408 -0.119,0.688 -3.243,4.094Z" style="fill:#19679e;"/><path d="M139.514,60.18c-26.669,0.02 -29.081,-0.225 -29.593,0.34c-0.047,0.052 -0.988,2.642 -3.694,2.935c-3.235,0.35 -4.232,-2.819 -4.707,-3.034c-0.89,-0.404 -7.554,-0.136 -12.903,-0.241c-0.06,-0.001 -4.341,0.248 -5.067,0.38c-11.213,2.049 -15.297,7.784 -20.14,12.609c-5.594,5.573 -5.557,5.593 -11.197,11.118c-1.196,1.172 -2.209,2.647 -3.294,1.704c-0.637,-0.553 -0.161,-0.741 2.382,-3.393c4.09,-4.264 5.792,-5.677 9.38,-9.415c0.476,-0.496 0.485,-0.478 6.055,-6.088c4.583,-4.615 9.906,-6.486 10.875,-6.826c8.442,-2.966 14.956,-1.481 23.141,-1.853c1.721,-0.078 0.958,-2.282 3.908,-3.141c3.333,-0.971 4.852,2.003 5.056,2.402c0.44,0.862 0.688,0.732 6.306,0.739c13.476,0.017 13.466,0.049 26.623,0.027c0.176,-0 1.781,-0.255 1.638,0.788c-0.156,1.14 -1.518,0.943 -4.769,0.949Z" style="fill:#effbfb;"/><path d="M104.668,185.965c2.285,0.002 28.2,0.028 28.563,-0.018c1.341,-0.168 0.994,-2.83 4.311,-3.181c3.099,-0.328 4.111,2.8 4.668,3.012c0.192,0.073 1.014,0.189 7.482,0.154c16.522,-0.09 22.83,-9.111 28.233,-14.696c0.978,-1.011 2.709,-2.95 6.114,-6.411c4.053,-4.12 4.515,-5.195 5.645,-4.68c0.87,0.396 0.092,1.247 0.02,1.325c-0.793,0.867 -0.804,0.846 -10.101,10.653c-5.85,6.171 -9.608,10.98 -18.182,13.891c-4.493,1.525 -8.615,1.667 -9.377,1.693c-5.964,0.205 -9.476,-0.25 -10.053,0.428c-0.338,0.397 -0.344,1.247 -2.011,2.366c-0.193,0.129 -3.933,2.131 -5.937,-2.084c-0.371,-0.78 -0.609,-0.689 -7.058,-0.671c-2.039,0.006 -25.152,0.074 -25.483,-0.022c-0.528,-0.154 -0.503,-0.904 -0.104,-1.363c0.419,-0.481 0.823,-0.386 3.271,-0.396Z" style="fill:#f9f7f8;"/><path d="M122.956,77.553c-2.338,3.351 -5.888,2.085 -7.014,0.118c-0.525,-0.917 -0.427,-1.191 -1.486,-1.237c-0.143,-0.006 -20.459,-0.165 -22.32,-0.009c-4.511,0.377 -7.714,2.246 -8.316,2.597c-2.756,1.608 -2.624,1.8 -10.349,10.074c-0.33,0.354 -0.812,0.976 -2.232,2.491c-0.814,0.868 -0.591,1.053 -0.017,1.813c2.387,3.165 -0.963,7.593 -4.902,5.712c-3.657,-1.746 -2.199,-7.116 1.149,-7.42c0.807,-0.073 1.007,0.235 2.328,-1.172c8.496,-9.048 11.824,-15.811 23.907,-15.918c4.573,-0.04 20.494,0.124 21.162,-0.039c0.863,-0.211 1.034,-2.099 3.075,-2.907c2.147,-0.85 4.271,0.491 4.982,1.742c0.344,0.606 0.222,1.17 1.708,1.203c1.921,0.043 10.877,0.025 10.918,0.041c0.17,0.064 0.257,0.266 0.27,0.295c0.134,0.31 -0.336,1.389 -1.401,1.439c-1.262,0.059 -10.008,-0.078 -10.56,0.093c-0.463,0.144 -0.765,0.853 -0.903,1.084Z" style="fill:#eef8f9;"/><path d="M122.68,172.369c-0.324,-0.442 -0.275,-0.526 -0.801,-0.669c-0.221,-0.06 -10.027,0.003 -11.335,0.052c-1.28,0.047 -2.121,0.204 -1.549,-0.936c0.592,-1.18 0.968,-0.802 7.416,-0.885c5.521,-0.071 5.839,0.244 6.27,-0.69c1.295,-2.81 3.952,-2.607 4.333,-2.545c3.063,0.498 2.928,2.826 3.911,3.218c0.318,0.127 0.323,0.083 4.28,0.048c9.404,-0.083 13.976,0.269 17.594,-0.811c5.071,-1.513 7.08,-3.191 16.253,-13.465c2.613,-2.926 3.342,-3.052 2.456,-4.389c-1.518,-2.291 -0.123,-4.816 1.275,-5.564c4.116,-2.2 7.802,2.966 4.883,6.054c-1.899,2.01 -3.165,0.594 -4.344,1.907c-4.555,5.074 -11.105,13.029 -15.496,15.391c-6.023,3.24 -8.379,2.537 -22.619,2.597c-4.22,0.018 -4.46,-0.139 -4.954,0.756c-0.184,0.333 -1.512,2.738 -4.07,2.461c-2.274,-0.246 -2.952,-1.595 -3.503,-2.529Z" style="fill:#faf6fa;"/><path d="M89.511,144.488c1.075,1.578 1.944,1.677 2.652,1.906l-0.254,0.528c-0.028,0.132 0.133,0.259 0.105,0.392c-0.098,0.458 -4.872,5.314 -7.492,11.255c-0.414,0.938 -0.483,0.902 -1.079,2.418c-0.721,1.832 -1.113,2.376 -2.032,6.271c-0.281,1.193 -0.337,1.17 -0.567,2.383c-0.063,0.332 -0.695,2.383 -0.934,4.682c-0.108,1.033 -0.297,1.18 -0.279,1.574c0.006,0.133 0.085,0.257 0.088,0.39c0.006,0.262 -0.149,0.537 -0.061,0.783c0.119,0.333 0.343,0.132 0.499,0.44c0.094,0.186 -0.191,0.169 -0.095,0.36c-0.25,0.934 -0.238,0.93 -0.57,2.303c-2.019,8.361 -1.333,17.706 0.146,22.732c0.201,0.683 0.29,0.712 0.13,0.898c-0.477,0.552 -0.58,0.068 -1.79,-1.226c0.175,-0.345 0.404,-0.113 0.575,-0.451c0.017,-0.033 0.059,-0.117 -0.118,-0.451c-0.07,-0.131 -0.219,-0.205 -0.297,-0.332c-0.218,-0.356 -0.033,-0.414 -0.217,-0.783c-0.073,-0.145 -0.254,-0.222 -0.312,-0.373c-0.006,-0.017 -0.018,-0.357 -0.172,-0.876c-0.099,-0.333 -0.654,-2.2 -0.937,-4.235c-1.193,-8.558 -1.177,-8.56 -1.17,-10.567c0.021,-6.14 -0.062,-6.149 1.155,-14.486c0.102,-0.699 0.429,-2.939 2.084,-8.579c0.755,-2.574 3.731,-8.089 4.312,-8.94c2.943,-4.314 2.868,-4.393 6.631,-8.015Z" style="fill:#353795;"/><path d="M135.989,68.142c-8.937,0.079 -42.122,-0.091 -46.2,0.087c-11.372,0.496 -17.271,7.869 -19.543,10.208c-0.525,0.54 -4.975,5.12 -6.646,6.669c-1.208,1.12 -1.588,1.086 -1.374,2.713c0.416,3.164 -2.652,5.03 -4.937,4.301c-3.954,-1.261 -3.413,-5.618 -1.178,-7.069c2.243,-1.456 3.95,-0.279 4.376,-0.129c0.781,0.276 0.812,-0.049 4.561,-3.848c5.669,-5.745 11.802,-13.496 22.779,-14.469c5.822,-0.516 39.481,-0.066 51.295,-0.223c1.1,-0.015 1.638,0.056 1.18,1.064c-0.382,0.84 -1.099,0.702 -4.313,0.697Z" style="fill:#ecf9fa;"/><path d="M104.733,178.67c0.322,-0.392 0.268,-0.471 0.754,-0.63c0.401,-0.131 37.427,-0.058 40.681,-0.052c1.643,0.003 13.043,1.009 21.199,-7.523c2.816,-2.945 5.89,-6.358 6.394,-6.918c1.922,-2.133 2.706,-2.082 2.278,-3.738c-0.695,-2.688 1.242,-4.69 3.026,-5.01c4.755,-0.853 6.297,5.658 2.347,7.407c-1.687,0.747 -2.644,0.214 -3.166,0.111c-0.833,-0.163 -0.847,0.114 -5.434,4.981c-4.533,4.811 -4.716,5.32 -7.77,7.535c-5.741,4.165 -12.32,4.778 -12.627,4.82c-2.702,0.373 -39.28,0.07 -46.574,0.177c-1.044,0.015 -1.66,0.134 -1.275,-0.837c0.045,-0.113 0.122,-0.211 0.166,-0.324Z" style="fill:#f7f2f7;"/><path d="M44.026,64.698c-0.02,-1.288 -0.163,-1.765 1.13,-1.758c0.188,0.001 1.399,0.007 2.35,-0.022c0.79,-0.024 5.039,-0.033 5.477,-0.034c1.16,-0.002 1.251,0.264 1.253,1.426c0.003,3.068 0.05,3.217 -0.155,3.467c-0.226,0.276 -1.368,0.28 -1.489,0.281c-0.595,0.002 -6.837,0.028 -7.437,-0.006c-1.208,-0.069 -1.004,-0.636 -1.129,-3.354Z" style="fill:#19c3ea;"/><path d="M45.828,94.072c0.294,0.279 0.399,0.107 0.692,0.386c0.134,0.127 0.047,0.159 0.127,0.392c0.148,0.432 0.261,0.374 0.385,0.821c0.226,0.815 0.322,0.767 0.337,0.837c0.015,0.071 -0.092,0.14 -0.065,0.208c0.026,0.066 0.142,0.046 0.186,0.101c0.07,0.087 0.089,0.206 0.141,0.305c0.202,0.387 0.191,0.381 0.388,0.775c0.93,1.861 3.433,4.588 4.724,5.822c0.216,0.207 2.187,1.682 2.746,1.96c0.084,0.042 0.189,0.025 0.273,0.067l-0.419,0.485c-0.131,-0.015 -0.264,0.047 -0.396,0.032c-0.016,-0.002 -0.809,-0.216 -1.57,-0.23c-1.252,-0.022 -4.678,0.007 -5.085,0.01c-0.341,0.003 -0.329,-0.053 -0.663,-0.025c-0.174,0.015 -0.346,0.133 -0.516,0.093c-0.165,-0.039 -0.24,-0.27 -0.406,-0.309c0.034,-0.146 0.195,-0.241 0.228,-0.386c0.031,-0.133 -1.016,-10.436 -1.108,-11.344Z" style="fill:#1b89ba;"/><path d="M25.339,97.977c0.014,-0.124 -0.007,-0.251 0.007,-0.375c0.238,-2.068 2.479,-3.078 4.066,-1.846c3.066,2.381 -0.699,6.32 -3.206,3.956c-0.928,-0.875 -0.79,-1.374 -0.867,-1.735Z" style="fill:#f4fcfa;"/><path d="M211.685,144.575c-0.004,0.021 0.059,1.391 -1.38,2.212c-1.723,0.983 -4.262,-0.65 -3.48,-3.009c0.74,-2.232 3.96,-2.255 4.732,0.009c0.021,0.06 0.009,0.058 0.128,0.787Z" style="fill:#f9f8fb;"/><path d="M153.709,83.892c0.026,-0.121 0.008,-0.249 0.034,-0.371c0.543,-2.57 3.882,-2.444 4.591,-0.429c0.9,2.555 -2.136,4.182 -3.856,2.643c-0.871,-0.78 -0.754,-1.655 -0.769,-1.843Z" style="fill:#405fb6;"/><path d="M94.936,143.838c-2.665,2.429 -5.121,-0.995 -3.914,-2.752c1.63,-2.372 6.011,-0.373 3.914,2.752Z" style="fill:#3b4a9f;"/><path d="M139.911,115.326c-0.138,-0.016 -0.686,0.113 -1.578,-0.502c-1.893,-1.305 -0.367,-5.077 2.345,-3.901c1.856,0.804 1.826,3.868 -0.368,4.35c-0.131,0.029 -0.268,0.025 -0.399,0.054Z" style="fill:#39388c;"/><path d="M108.061,59.22c-0.031,0.183 0.06,0.867 -0.627,1.591c-2.246,2.369 -5.802,-1.738 -2.721,-3.457c0.388,-0.217 1.761,-0.548 2.664,0.329c0.624,0.606 0.5,0.688 0.683,1.537Z" style="fill:#2ea3d9;"/><path d="M141.084,124.15c0.318,0.081 1.186,0.069 1.822,1.3c0.932,1.803 -1.075,3.792 -2.934,2.913c-2.09,-0.988 -1.567,-3.968 0.711,-4.207c0.133,-0.014 0.268,0.007 0.401,-0.007Z" style="fill:#6542ba;"/><path d="M135.706,186.488c0.271,-0.644 0.166,-0.71 0.687,-1.185c0.926,-0.845 2.235,-0.574 2.642,-0.28c2.602,1.878 -0.295,5.474 -2.553,3.661c-1.036,-0.832 -0.789,-1.836 -0.776,-2.196Z" style="fill:#b031bc;"/><path d="M124.371,170.064c0.527,-0.952 0.467,-1.087 1.494,-1.428c0.565,-0.188 1.456,0.064 1.815,0.332c2.419,1.808 -0.139,5.002 -2.226,3.73c-1.627,-0.991 -1.093,-2.555 -1.083,-2.634Z" style="fill:#883bc0;"/><path d="M121.576,75.263c-0.081,0.994 0.051,1.079 -0.639,1.804c-2.263,2.379 -5.534,-1.936 -2.469,-3.564c0.401,-0.213 1.299,-0.225 1.781,-0.002c1.225,0.566 1.322,1.746 1.327,1.762Z" style="fill:#3986ca;"/><path d="M58.069,86.178c0.134,0.009 0.27,-0.019 0.404,-0.01c1.923,0.135 2.802,3.08 0.781,3.989c-2.259,1.016 -3.779,-1.584 -2.633,-3.062c0.542,-0.699 0.609,-0.633 1.449,-0.918Z" style="fill:#1cbfe7;"/><path d="M68.248,97.801c-1.122,-0.206 -1.245,-0.105 -1.888,-1.038c-1.479,-2.145 1.679,-4.452 3.378,-2.248c0.262,0.34 0.531,1.275 0.329,1.853c-0.44,1.266 -1.696,1.393 -1.82,1.432Z" style="fill:#27b5e3;"/><path d="M174.753,147.056c0.12,0.024 0.246,-0.001 0.366,0.023c1.768,0.352 2.244,2.529 1.063,3.605c-1.866,1.701 -4.585,-1.201 -2.96,-2.947c0.591,-0.635 0.678,-0.49 1.531,-0.682Z" style="fill:#a734bc;"/><path d="M181.475,157.445c0.094,0.249 0.762,1.134 -0.055,2.407c-1.109,1.727 -4.257,0.448 -3.514,-1.961c0.355,-1.15 2.136,-1.928 3.387,-0.686c0.071,0.071 0.111,0.169 0.182,0.239Z" style="fill:#b539be;"/><path d="M41.783,106.975c-0.024,0.149 0.102,0.849 -0.654,1.413c-1.688,1.258 -3.654,-1.823 -1.397,-2.814c0.247,-0.108 0.838,-0.067 1.045,0.028c0.828,0.379 0.754,0.497 1.007,1.373Z" style="fill:#f6fcfb;"/><path d="M104.163,117.171c0.029,-0.136 0,-0.28 0.029,-0.416c0.207,-0.981 1.692,-1.533 2.495,-0.845c1.441,1.235 -0.18,3.389 -1.572,2.7c-0.826,-0.409 -0.699,-0.554 -0.951,-1.439Z" style="fill:#367ac9;"/><path d="M38.929,60.409c-0.454,0.726 -0.391,0.873 -1.238,1.025c-1.118,0.201 -2.555,-1.525 -1.031,-2.85c0.106,-0.092 0.927,-0.806 1.753,-0.048c0.953,0.874 0.525,1.799 0.516,1.872Z" style="fill:#f2fcfb;"/><path d="M26.892,71.707c-0.005,-0.12 -0.047,-0.236 -0.052,-0.356c-0.058,-1.393 1.46,-2.162 2.401,-1.356c1.677,1.438 -0.306,3.111 -1.281,2.79c-0.757,-0.249 -0.666,-0.389 -1.069,-1.079Z" style="fill:#f0fbfa;"/><path d="M200.771,184.104c-0.161,0.801 -0.002,0.931 -0.688,1.387c-1.274,0.847 -3.282,-1.013 -1.744,-2.44c0.688,-0.638 2.078,-0.284 2.36,0.632c0.042,0.136 0.03,0.284 0.072,0.42Z" style="fill:#f6f3fb;"/><path d="M210.438,173.963c-0.474,0.653 -0.427,0.807 -1.228,0.858c-2.297,0.148 -1.863,-3.662 0.413,-2.919c0.431,0.141 0.644,0.46 0.682,0.517c0.451,0.675 0.241,0.734 0.132,1.544Z" style="fill:#f7f4f9;"/><path d="M72.749,102.609c0.073,0.133 0.146,0.267 0.219,0.4l-0.331,-0.092l0.112,-0.308Z" style="fill:#9ad0e0;"/></g></svg>